<svg xmlns="http://www.w3.org/2000/svg" viewBox="0 0 800 600" width="800" height="600">
  <defs>
    <linearGradient id="g1" x1="0" x2="1" y1="0" y2="1">
      <stop offset="0%" stop-color="#f6f0ff"/>
      <stop offset="100%" stop-color="#fff"/>
    </linearGradient>
  </defs>
  <rect width="100%" height="100%" fill="url(#g1)"/>

  <!-- stylized hands -->
  <g transform="translate(120,90) scale(0.9)">
    <path d="M120 220 C 140 200, 220 180, 300 200 C 360 215, 360 260, 320 300 C 290 330, 230 330, 190 310 C 150 290, 110 250, 120 220 Z" fill="#f1d8d0" stroke="#e0bdb0" stroke-width="4"/>
    <path d="M260 240 C 300 220, 380 200, 460 220 C 520 235, 520 280, 480 320 C 450 350, 390 350, 350 330 C 310 310, 270 270, 260 240 Z" fill="#fdeee6" stroke="#f0cfc3" stroke-width="4"/>
    <path d="M230 260 C 260 240, 320 230, 380 240" stroke="#e2a999" stroke-width="8" stroke-linecap="round" fill="none" opacity="0.5"/>
  </g>

  <text x="50%" y="86%" font-size="36" text-anchor="middle" fill="#4B2E83" font-family="sans-serif">Memory Loss</text>
</svg>